# xmcd
#
# Track frame offsets: 
#        150
#        17885
#        23450
#
# Disc length: 546 seconds
#
# Revision: 2
# Processed by: cddbd v1.5.2PL0 Copyright (c) Steve Scherf et al.
# Submitted via: ExactAudioCopy v0.99pb4
#
DISCID=15022003
DTITLE=Midget - Bugs in the Cookie Jar
DYEAR=1999
DGENRE=Pop
TTITLE0=Bugs in the Cookie Jar
TTITLE1=01.10
TTITLE2=Song for the Dumped
EXTD=
EXTT0=
EXTT1=
EXTT2=
PLAYORDER=
